<svg xmlns="http://www.w3.org/2000/svg" width="129.0692" height="97.19995" viewBox="0 0 129.0692 97.19995">
  <title>UNC primary mark blue</title>
  <g id="Layer_2" data-name="Layer 2">
    <g id="page1">
      <g>
        <path d="M111.737,55.274a2.128,2.128,0,0,0-1.504-.622,1.69447,1.69447,0,0,0-.245.016,2.11037,2.11037,0,0,0-1.562.992,20.91012,20.91012,0,0,1-3.518,4.208,88.02475,88.02475,0,0,1,0-22.533,20.89166,20.89166,0,0,1,3.518,4.21,2.125,2.125,0,0,0,1.562.99,1.45341,1.45341,0,0,0,.245.016,2.14394,2.14394,0,0,0,1.504-.621l11.909-11.911a2.12392,2.12392,0,0,0,.152-2.837,52.021,52.021,0,0,0-12.841-11.21,53.55588,53.55588,0,0,1,2.967-5.492,2.12378,2.12378,0,0,0-.729-2.953A82.86409,82.86409,0,0,0,97.47.43994,2.154,2.154,0,0,0,96.797.331a2.12685,2.12685,0,0,0-1.835,1.049c-1.141,1.948-2.221,4-3.224,6.119A93.246,93.246,0,0,0,65.912,3.952,94.43149,94.43149,0,0,0,42.947,6.726l-5.335-6.01a2.11,2.11,0,0,0-2.238-.612A83.36461,83.36461,0,0,0,18.622,7.53a2.12832,2.12832,0,0,0-.634,3.095,53.81518,53.81518,0,0,1,2.876,5.345C7.576,24.37994,0,36.18994,0,48.602s7.576,24.22,20.864,32.634a53.78881,53.78881,0,0,1-2.966,5.486,2.12714,2.12714,0,0,0,.731,2.955,82.9989,82.9989,0,0,0,15.723,7.085,2.12385,2.12385,0,0,0,2.51-.939c1.142-1.952,2.221-4.003,3.223-6.116a93.29132,93.29132,0,0,0,25.827,3.544,94.48272,94.48272,0,0,0,22.962-2.773l5.336,6.007a2.12982,2.12982,0,0,0,2.24.614,83.25474,83.25474,0,0,0,16.749-7.426,2.12447,2.12447,0,0,0,.637-3.094,53.99477,53.99477,0,0,1-2.879-5.346,52.06747,52.06747,0,0,0,12.841-11.212,2.12525,2.12525,0,0,0-.152-2.838ZM26.914,59.872c-2.979-2.787-5.653-6.593-5.653-11.27,0-4.68,2.674-8.485,5.653-11.27a87.147,87.147,0,0,1,.726,11.27,87.1242,87.1242,0,0,1-.726,11.27M65.912,71.989a79.22382,79.22382,0,0,1-19.172-2.3,102.57617,102.57617,0,0,0,2.162-21.087q0-1.602-.048-3.202L72.247,71.747c-2.102.159-4.219.242-6.335.242m17.056-20.187L59.574,25.452c2.093-.159,4.213-.237,6.338-.237a78.96756,78.96756,0,0,1,19.169,2.302A102.80756,102.80756,0,0,0,82.92,48.602c0,1.064.018,2.132.048,3.2" style="fill: #7aadd3"/>
        <path d="M122.55519,78.46655a5.44252,5.44252,0,1,1-5.457,5.445,5.43259,5.43259,0,0,1,5.457-5.445m0,11.942a6.499,6.499,0,1,0-6.515-6.497,6.45986,6.45986,0,0,0,6.515,6.497m1.125-6.169a1.85688,1.85688,0,0,0,1.95-2.001c0-1.536-1.19-1.935-2.513-1.935h-3.075v7.309h1.057v-3.373h1.354l1.871,3.373h1.207Zm-.761-2.877c.877,0,1.654.069,1.654.992,0,.994-1.357.826-2.348.826h-1.126v-1.818Z" style="fill: #7aadd3"/>
      </g>
    </g>
  </g>
</svg>
